<?xml version="1.0" encoding="utf-8"?>
<!-- Generator: Adobe Illustrator 16.0.0, SVG Export Plug-In . SVG Version: 6.00 Build 0)  -->
<!DOCTYPE svg PUBLIC "-//W3C//DTD SVG 1.1//EN" "http://www.w3.org/Graphics/SVG/1.1/DTD/svg11.dtd">
<svg version="1.1" xmlns="http://www.w3.org/2000/svg" xmlns:xlink="http://www.w3.org/1999/xlink" x="0px" y="0px" width="340px"
	 height="340px" viewBox="0 0 340 340" enable-background="new 0 0 340 340" xml:space="preserve">
<g id="normal">
	<g>
		<linearGradient id="SVGID_1_" gradientUnits="userSpaceOnUse" x1="169.9995" y1="1.2505" x2="169.9995" y2="338.7505">
			<stop  offset="0" style="stop-color:#C9D04D"/>
			<stop  offset="1" style="stop-color:#A6B011"/>
		</linearGradient>
		<circle fill="url(#SVGID_1_)" cx="170" cy="170" r="168.75"/>
	</g>
	<g id="kontur" opacity="0.3">
		<path fill="#FFFFFF" d="M170,6.25c43.739,0,84.86,17.033,115.788,47.961C316.717,85.14,333.75,126.261,333.75,170
			c0,43.739-17.033,84.861-47.962,115.789C254.86,316.717,213.739,333.75,170,333.75s-84.861-17.033-115.789-47.961
			S6.25,213.739,6.25,170c0-43.739,17.033-84.86,47.961-115.788C85.14,23.284,126.261,6.25,170,6.25 M170,1.25
			C76.802,1.25,1.25,76.803,1.25,170c0,93.199,75.552,168.75,168.75,168.75c93.197,0,168.75-75.551,168.75-168.75
			C338.75,76.803,263.197,1.25,170,1.25L170,1.25z"/>
	</g>
	<g>
		<path fill="#FFFFFF" d="M248.971,177.976c0,10.986-2.147,21.48-6.44,31.479c-4.294,10.001-10.066,18.629-17.315,25.881
			c-7.251,7.255-15.874,13.028-25.868,17.325c-9.996,4.294-20.483,6.443-31.465,6.443c-10.98,0-21.47-2.149-31.464-6.443
			c-9.996-4.297-18.619-10.07-25.869-17.325c-7.25-7.252-13.023-15.88-17.316-25.881c-4.294-9.999-6.44-20.493-6.44-31.479
			c0-12.817,2.833-24.894,8.5-36.234c5.666-11.338,13.637-20.845,23.915-28.522c3.025-2.253,6.388-3.133,10.083-2.641
			c3.695,0.493,6.633,2.254,8.816,5.282c2.252,2.958,3.115,6.285,2.587,9.982c-0.528,3.698-2.27,6.673-5.226,8.927
			c-6.899,5.212-12.231,11.585-15.996,19.12c-3.767,7.537-5.649,15.565-5.649,24.085c0,7.325,1.425,14.313,4.276,20.969
			c2.851,6.655,6.705,12.412,11.562,17.271c4.857,4.859,10.611,8.715,17.263,11.567s13.637,4.278,20.958,4.278
			c7.32,0,14.307-1.426,20.959-4.278c6.651-2.853,12.406-6.708,17.263-11.567c4.857-4.859,8.711-10.616,11.562-17.271
			s4.276-13.644,4.276-20.969c0-8.521-1.884-16.549-5.648-24.085c-3.767-7.535-9.099-13.908-15.996-19.12
			c-2.957-2.253-4.699-5.229-5.227-8.927c-0.528-3.697,0.333-7.024,2.587-9.982c2.181-3.027,5.137-4.789,8.869-5.282
			c3.729-0.492,7.074,0.388,10.03,2.641c10.276,7.677,18.248,17.184,23.915,28.522C246.137,153.082,248.971,165.159,248.971,177.976
			z M181.396,96.846v67.607c0,3.663-1.338,6.832-4.012,9.507c-2.676,2.678-5.844,4.015-9.503,4.015
			c-3.661,0-6.828-1.337-9.502-4.015c-2.676-2.676-4.012-5.845-4.012-9.507V96.846c0-3.661,1.336-6.83,4.012-9.507
			c2.674-2.676,5.842-4.014,9.502-4.014c3.659,0,6.827,1.338,9.503,4.014C180.059,90.016,181.396,93.185,181.396,96.846z"/>
	</g>
	<g id="icon_font" display="none">
		
			<text transform="matrix(0.9995 0 0 1 86.793 245.583)" display="inline" fill="#FFFFFF" font-family="'FontAwesome'" font-size="189.3015"></text>
	</g>
</g>
<g id="hover" display="none">
	<g display="inline">
		<linearGradient id="SVGID_2_" gradientUnits="userSpaceOnUse" x1="169.9995" y1="1.2505" x2="169.9995" y2="338.7505">
			<stop  offset="0" style="stop-color:#C9D04D"/>
			<stop  offset="1" style="stop-color:#A6B011"/>
		</linearGradient>
		<circle fill="url(#SVGID_2_)" cx="170" cy="170" r="168.75"/>
	</g>
	<g id="kontur_1_" display="inline" opacity="0.3">
		<path fill="#FFFFFF" d="M170,11.25c42.403,0,82.269,16.513,112.253,46.497C312.237,87.731,328.75,127.597,328.75,170
			c0,42.404-16.513,82.27-46.497,112.254C252.27,312.237,212.403,328.75,170,328.75c-42.404,0-82.27-16.513-112.253-46.496
			C27.762,252.27,11.25,212.404,11.25,170c0-42.403,16.513-82.269,46.497-112.252C87.73,27.763,127.596,11.25,170,11.25 M170,1.25
			C76.802,1.25,1.25,76.803,1.25,170c0,93.199,75.552,168.75,168.75,168.75c93.197,0,168.75-75.551,168.75-168.75
			C338.75,76.803,263.197,1.25,170,1.25L170,1.25z"/>
	</g>
	<g display="inline">
		<path fill="#FFFFFF" d="M230.852,170.25c0,8.125-1.588,15.887-4.763,23.281c-3.176,7.396-7.445,13.777-12.807,19.141
			c-5.362,5.365-11.739,9.635-19.131,12.812c-7.393,3.176-15.148,4.766-23.27,4.766c-8.121,0-15.878-1.59-23.27-4.766
			c-7.393-3.178-13.77-7.447-19.131-12.812c-5.362-5.363-9.631-11.744-12.806-19.141c-3.176-7.395-4.763-15.156-4.763-23.281
			c0-9.479,2.095-18.41,6.286-26.797c4.189-8.385,10.085-15.416,17.687-21.094c2.237-1.666,4.724-2.317,7.457-1.953
			c2.733,0.365,4.906,1.667,6.521,3.906c1.665,2.188,2.303,4.648,1.913,7.383c-0.391,2.734-1.679,4.936-3.865,6.602
			c-5.103,3.855-9.046,8.568-11.83,14.141c-2.786,5.574-4.178,11.512-4.178,17.812c0,5.418,1.054,10.586,3.163,15.508
			c2.108,4.922,4.958,9.18,8.55,12.773s7.848,6.445,12.767,8.555s10.085,3.164,15.5,3.164c5.414,0,10.581-1.055,15.5-3.164
			c4.919-2.109,9.175-4.961,12.767-8.555s6.442-7.852,8.551-12.773s3.162-10.09,3.162-15.508c0-6.301-1.393-12.238-4.178-17.812
			c-2.785-5.572-6.729-10.286-11.83-14.141c-2.186-1.666-3.475-3.867-3.865-6.602c-0.39-2.734,0.247-5.195,1.913-7.383
			c1.613-2.239,3.8-3.541,6.56-3.906c2.759-0.364,5.231,0.287,7.418,1.953c7.601,5.678,13.496,12.709,17.687,21.094
			C228.756,151.84,230.852,160.771,230.852,170.25z M180.877,110.25v50c0,2.709-0.99,5.053-2.968,7.031
			c-1.979,1.98-4.321,2.969-7.028,2.969c-2.708,0-5.05-0.988-7.028-2.969c-1.979-1.979-2.967-4.322-2.967-7.031v-50
			c0-2.708,0.988-5.051,2.967-7.031c1.978-1.979,4.32-2.969,7.028-2.969c2.707,0,5.049,0.99,7.028,2.969
			C179.887,105.199,180.877,107.542,180.877,110.25z"/>
	</g>
	<text transform="matrix(0.9995 0 0 1 110.9111 220.25)" fill="#FFFFFF" font-family="'FontAwesome'" font-size="140"></text>
</g>
</svg>
